<?xml version="1.0" ?>
<!-- Uploaded to: SVG Repo, www.svgrepo.com, Generator: SVG Repo Mixer Tools -->
<svg width="800px" height="800px" viewBox="0 0 64 64" xmlns="http://www.w3.org/2000/svg">
<defs>
<style>.cls-1{fill:#ab7c73;}.cls-2{fill:#6e5b5e;}.cls-3{fill:#ffffff;}</style>
</defs>
<g id="main">
<path class="cls-1" d="M52.34,37.53a1,1,0,0,1-.77,1.14,103.87,103.87,0,0,1-19.56,2,103.87,103.87,0,0,1-19.56-2,1,1,0,0,1-.77-1.14l.1-.61c.47-3,.31-2,.68-4.43L15,15.92a8,8,0,0,1,15.74-2,1.28,1.28,0,0,0,2.52,0A8,8,0,0,1,49,15.92l2.55,16.56C51.94,35,51.77,33.82,52.34,37.53Z"/>
<path class="cls-2" d="M61.47,36.78C60.09,35,58,34.55,55.67,35.41a34.79,34.79,0,0,1-3.92,1.16,1,1,0,0,0-.75.81s0,.12,0,.27a15.11,15.11,0,0,1-.28,1.89,17.67,17.67,0,0,1-.56,2s0,.08,0,.11c-.08.25-.17.51-.27.76l-4,6.18a1,1,0,0,0,.57,1.5l5.38,1.49a10.46,10.46,0,0,0,2.7.38,7.82,7.82,0,0,0,6.7-3.66C63.48,44.81,63.63,39.52,61.47,36.78Z"/>
<path class="cls-2" d="M18.2,48.63c-4.06-6.25-4.21-6.06-4.89-9.08a16.39,16.39,0,0,1-.29-2s0-.15,0-.18a1,1,0,0,0-.75-.81,34.79,34.79,0,0,1-3.92-1.16C6,34.55,3.91,35,2.53,36.78c-2.16,2.74-2,8,.32,11.56A7.82,7.82,0,0,0,9.55,52a10.07,10.07,0,0,0,2.7-.39l5.38-1.48a1,1,0,0,0,.57-1.5Z"/>
<path class="cls-2" d="M52.34,37.53a1,1,0,0,1-.77,1.14,103.87,103.87,0,0,1-19.56,2,103.87,103.87,0,0,1-19.56-2,1,1,0,0,1-.77-1.14l.1-.61c.47-3,.31-2,.68-4.43A90.59,90.59,0,0,0,32,34.65a90.67,90.67,0,0,0,19.55-2.17C51.94,35,51.77,33.82,52.34,37.53Z"/>
<path class="cls-1" d="M52.65,36.79a1,1,0,0,0-.89-.22l-.63.14A103.39,103.39,0,0,1,32,38.65a103.76,103.76,0,0,1-19.11-1.93l-.64-.15a1,1,0,0,0-.89.22,1,1,0,0,0-.33.86C13.08,55.79,31.8,56,32,56h0c.19,0,18.91-.21,21-18.35A1,1,0,0,0,52.65,36.79Z"/>
<path class="cls-3" d="M29,32a1,1,0,0,1-1-1V21a1,1,0,0,1,1-1h2.64c3,.2,4.86,2.58,4.86,6.07s-2,5.83-4.76,5.88L29,32Zm1-2,1.7,0c1.92,0,2.8-2,2.8-3.88s-.77-3.93-2.93-4.07H30Z"/>
</g>
</svg>